<?xml version="1.0" encoding="utf-8"?>
<!-- Generator: Adobe Illustrator 25.2.0, SVG Export Plug-In . SVG Version: 6.00 Build 0)  -->
<svg version="1.1" id="Layer_1" xmlns="http://www.w3.org/2000/svg" xmlns:xlink="http://www.w3.org/1999/xlink" x="0px" y="0px"
	 viewBox="0 0 2000 774.78" style="enable-background:new 0 0 2000 774.78;" xml:space="preserve">
<style type="text/css">
	.st0{fill:#FFFFFF;}
	.st1{fill:url(#SVGID_1_);}
	.st2{fill:url(#SVGID_2_);}
	.st3{fill:url(#SVGID_3_);}
	.st4{fill:url(#SVGID_4_);}
	.st5{fill:url(#SVGID_5_);}
	.st6{fill:url(#SVGID_6_);}
	.st7{fill:url(#SVGID_7_);}
	.st8{fill:url(#SVGID_8_);}
	.st9{fill:url(#SVGID_9_);}
	.st10{fill:url(#SVGID_10_);}
	.st11{fill:url(#SVGID_11_);}
	.st12{fill:url(#SVGID_12_);}
	.st13{fill:url(#SVGID_13_);}
	.st14{fill:url(#SVGID_14_);}
</style>
<g>
	<g>
		<g>
			<g>
				<g>
					<path class="st0" d="M361.45,233.36c-28.72-3.73-59.47-3.73-88.21,0c-29.28,3.8-57.79,12.17-57.03,39.54
						c0.76,27.37,25.09,47.9,62.35,33.08c25.27-10.06,29.03-31.3,28.83-43.94c-0.09-5.55,4.4-10.05,9.95-10.05s10.03,4.5,9.95,10.05
						c-0.2,12.63,3.56,33.88,28.83,43.94c37.26,14.83,61.59-5.7,62.35-33.08C419.24,245.52,390.73,237.16,361.45,233.36z"/>
					<path class="st0" d="M166.79,343.62c-3.73,28.72-3.73,59.47,0,88.21c3.8,29.28,12.17,57.79,39.54,57.03
						c27.37-0.76,47.9-25.09,33.08-62.35c-10.06-25.27-31.3-29.03-43.94-28.83c-5.55,0.09-10.05-4.4-10.05-9.95
						s4.5-10.03,10.05-9.95c12.63,0.2,33.88-3.56,43.94-28.83c14.83-37.26-5.7-61.59-33.08-62.35
						C178.95,285.83,170.59,314.34,166.79,343.62z"/>
					<path class="st0" d="M277.05,538.28c28.72,3.73,59.47,3.73,88.21,0c29.28-3.8,57.79-12.17,57.03-39.54
						c-0.76-27.37-25.09-47.9-62.35-33.08c-25.27,10.06-29.03,31.3-28.83,43.94c0.09,5.55-4.4,10.05-9.95,10.05
						s-10.03-4.5-9.95-10.05c0.2-12.63-3.56-33.88-28.83-43.94c-37.26-14.83-61.59,5.7-62.35,33.08
						C219.26,526.11,247.77,534.48,277.05,538.28z"/>
					<path class="st0" d="M471.71,428.02c3.73-28.72,3.73-59.47,0-88.21c-3.8-29.28-12.17-57.79-39.54-57.03
						c-27.37,0.76-47.9,25.09-33.08,62.35c10.06,25.27,31.3,29.03,43.94,28.83c5.55-0.09,10.05,4.4,10.05,9.95
						s-4.5,10.03-10.05,9.95c-12.63-0.2-33.88,3.56-43.94,28.83c-14.83,37.26,5.7,61.59,33.08,62.35
						C459.54,485.81,467.91,457.3,471.71,428.02z"/>
				</g>
				<g>
					<linearGradient id="SVGID_1_" gradientUnits="userSpaceOnUse" x1="319.2486" y1="125.6301" x2="319.2486" y2="480.7079">
						<stop  offset="0" style="stop-color:#815BF3"/>
						<stop  offset="1" style="stop-color:#CD53F9"/>
					</linearGradient>
					<path class="st1" d="M366.61,389.04l-21.89,9.53c-7.31,3.18-12.8,9.48-14.96,17.15l-7.14,25.33c-0.96,3.41-5.8,3.41-6.76,0
						l-7.14-25.33c-2.16-7.67-7.65-13.96-14.96-17.15l-21.89-9.53c-2.81-1.22-2.81-5.21,0-6.44l21.89-9.53
						c7.31-3.18,12.8-9.48,14.96-17.15l7.14-25.33c0.96-3.41,5.8-3.41,6.76,0l7.14,25.33c2.16,7.67,7.65,13.96,14.96,17.15
						l21.89,9.53C369.42,383.83,369.42,387.81,366.61,389.04z"/>
				</g>
			</g>
		</g>
		<g>
			<g>
				<path class="st0" d="M527.61,453.68l45.67-133.89h42.55l46.95,133.89h-26.78l-39.8-116.1l9.35,4.03h-22.93l9.54-4.03
					l-38.52,116.1H527.61z M559.53,418.1l8.26-22.01h54.29l8.07,22.01H559.53z"/>
				<path class="st0" d="M671.41,373.17v-19.08h39.44v19.08H671.41z M694.7,342.17c-5.01,0-8.71-1.31-11.1-3.94
					c-2.38-2.63-3.58-5.96-3.58-10s1.19-7.34,3.58-9.9c2.39-2.57,6.08-3.85,11.1-3.85c5.01,0,8.68,1.29,11,3.85
					c2.32,2.57,3.49,5.87,3.49,9.9s-1.16,7.37-3.49,10C703.38,340.86,699.71,342.17,694.7,342.17z M685.35,453.68v-99.59h25.5v99.59
					H685.35z"/>
				<linearGradient id="SVGID_2_" gradientUnits="userSpaceOnUse" x1="787.415" y1="278.3343" x2="787.415" y2="431.5986">
					<stop  offset="0" style="stop-color:#815BF3"/>
					<stop  offset="1" style="stop-color:#CD53F9"/>
				</linearGradient>
				<path class="st2" d="M787.87,457.17c-11.86,0-21.86-1.9-29.99-5.68c-8.13-3.79-14.34-9.02-18.61-15.68
					c-4.28-6.67-6.42-14.22-6.42-22.65h25.5c0,3.55,0.98,7,2.93,10.36c1.96,3.36,5.1,6.08,9.45,8.16
					c4.34,2.08,10.06,3.12,17.15,3.12c6.35,0,11.68-0.91,15.96-2.75c4.28-1.83,7.46-4.25,9.54-7.25c2.08-3,3.12-6.39,3.12-10.18
					c0-4.77-2.02-8.59-6.05-11.46s-10.27-4.68-18.71-5.41l-11.74-0.91c-12.84-1.1-23.08-5.1-30.72-12.02
					c-7.64-6.9-11.46-16.05-11.46-27.42c0-8.55,2.02-15.92,6.05-22.1c4.03-6.17,9.69-10.94,16.97-14.31
					c7.27-3.36,15.8-5.04,25.59-5.04c10.15,0,18.89,1.77,26.22,5.32c7.34,3.55,13.02,8.53,17.06,14.95
					c4.03,6.42,6.05,13.97,6.05,22.65h-25.5c0-3.67-0.89-7.06-2.66-10.18c-1.77-3.12-4.4-5.62-7.89-7.52
					c-3.49-1.89-7.92-2.84-13.29-2.84c-5.14,0-9.42,0.86-12.84,2.57c-3.43,1.71-5.99,4.03-7.7,6.97c-1.71,2.93-2.57,6.12-2.57,9.53
					c0,4.16,1.53,7.8,4.59,10.91c3.05,3.12,7.88,4.92,14.49,5.41l11.74,1.1c9.54,0.73,17.91,2.75,25.13,6.05
					c7.21,3.3,12.8,7.76,16.78,13.39c3.97,5.62,5.96,12.41,5.96,20.35c0,8.44-2.2,15.87-6.61,22.28
					c-4.4,6.42-10.67,11.41-18.8,14.95C808.44,455.39,798.88,457.17,787.87,457.17z"/>
				<linearGradient id="SVGID_3_" gradientUnits="userSpaceOnUse" x1="886.1806" y1="278.3343" x2="886.1806" y2="431.5986">
					<stop  offset="0" style="stop-color:#815BF3"/>
					<stop  offset="1" style="stop-color:#CD53F9"/>
				</linearGradient>
				<path class="st3" d="M850.97,372.8v-18.71h70.43v18.71H850.97z M907.09,454.96c-9.17,0-16.72-1.19-22.65-3.58
					c-5.94-2.38-10.37-6.42-13.3-12.1c-2.94-5.69-4.4-13.36-4.4-23.02l0.18-90.23h23.84l-0.18,91.88c0,4.89,1.31,8.65,3.94,11.28
					c2.63,2.63,6.39,3.94,11.28,3.94h15.59v21.83H907.09z"/>
				<linearGradient id="SVGID_4_" gradientUnits="userSpaceOnUse" x1="985.6792" y1="278.3343" x2="985.6792" y2="431.5986">
					<stop  offset="0" style="stop-color:#815BF3"/>
					<stop  offset="1" style="stop-color:#CD53F9"/>
				</linearGradient>
				<path class="st4" d="M976.78,456.8c-11.49,0-20.39-3.79-26.68-11.37c-6.3-7.58-9.45-18.83-9.45-33.75v-57.77h25.5v59.97
					c0,6.12,1.71,10.98,5.14,14.58c3.42,3.61,8.07,5.41,13.94,5.41s10.67-1.9,14.4-5.69c3.73-3.79,5.59-8.92,5.59-15.4v-58.87h25.49
					v99.77h-20.17v-42.37h2.02c0,10.03-1.28,18.41-3.85,25.13c-2.57,6.73-6.42,11.81-11.56,15.22c-5.14,3.42-11.55,5.14-19.26,5.14
					H976.78z"/>
				<linearGradient id="SVGID_5_" gradientUnits="userSpaceOnUse" x1="1106.3624" y1="278.3343" x2="1106.3624" y2="431.5986">
					<stop  offset="0" style="stop-color:#815BF3"/>
					<stop  offset="1" style="stop-color:#CD53F9"/>
				</linearGradient>
				<path class="st5" d="M1101.32,456.98c-6.97,0-13.39-1.28-19.26-3.85s-10.95-6.17-15.22-10.82c-4.28-4.65-7.58-10.06-9.91-16.24
					c-2.32-6.17-3.48-12.87-3.48-20.08v-3.85c0-7.09,1.13-13.75,3.39-19.99c2.26-6.24,5.44-11.68,9.54-16.33
					c4.09-4.65,9.04-8.28,14.85-10.91c5.81-2.63,12.26-3.94,19.35-3.94c7.82,0,14.7,1.68,20.63,5.05
					c5.93,3.36,10.66,8.41,14.21,15.13c3.54,6.73,5.5,15.16,5.87,25.31l-7.52-8.81v-67.86h25.5v133.89h-20.17v-42.37h4.4
					c-0.37,10.15-2.45,18.62-6.24,25.41c-3.79,6.79-8.77,11.86-14.95,15.22C1116.14,455.3,1109.14,456.98,1101.32,456.98z
					 M1107,435.53c5.01,0,9.6-1.13,13.76-3.4c4.16-2.26,7.49-5.56,9.99-9.9s3.76-9.44,3.76-15.31v-7.34
					c0-5.87-1.28-10.79-3.85-14.76c-2.57-3.97-5.93-7.03-10.09-9.17c-4.16-2.14-8.68-3.21-13.57-3.21c-5.5,0-10.36,1.31-14.58,3.94
					c-4.22,2.63-7.52,6.33-9.9,11.1c-2.39,4.77-3.58,10.33-3.58,16.69c0,6.36,1.22,11.89,3.67,16.6s5.78,8.34,10,10.91
					C1096.83,434.24,1101.62,435.53,1107,435.53z"/>
				<linearGradient id="SVGID_6_" gradientUnits="userSpaceOnUse" x1="1198.8025" y1="278.3343" x2="1198.8025" y2="431.5986">
					<stop  offset="0" style="stop-color:#815BF3"/>
					<stop  offset="1" style="stop-color:#CD53F9"/>
				</linearGradient>
				<path class="st6" d="M1179.09,373.17v-19.08h39.43v19.08H1179.09z M1202.38,342.17c-5.01,0-8.71-1.31-11.09-3.94
					s-3.58-5.96-3.58-10s1.2-7.34,3.58-9.9c2.38-2.57,6.08-3.85,11.09-3.85s8.68,1.29,11,3.85c2.32,2.57,3.49,5.87,3.49,9.9
					s-1.16,7.37-3.49,10C1211.06,340.86,1207.39,342.17,1202.38,342.17z M1193.02,453.68v-99.59h25.5v99.59H1193.02z"/>
				<linearGradient id="SVGID_7_" gradientUnits="userSpaceOnUse" x1="1295.6409" y1="278.3343" x2="1295.6409" y2="431.5986">
					<stop  offset="0" style="stop-color:#815BF3"/>
					<stop  offset="1" style="stop-color:#CD53F9"/>
				</linearGradient>
				<path class="st7" d="M1295.73,457.17c-8.81,0-16.57-1.41-23.29-4.22c-6.73-2.81-12.41-6.63-17.06-11.46
					c-4.65-4.83-8.16-10.3-10.55-16.42c-2.38-6.11-3.58-12.47-3.58-19.07v-3.85c0-6.84,1.25-13.36,3.76-19.53
					c2.51-6.17,6.11-11.68,10.82-16.51c4.7-4.83,10.42-8.62,17.15-11.37c6.72-2.75,14.31-4.13,22.74-4.13
					c8.44,0,16.02,1.38,22.74,4.13c6.72,2.75,12.44,6.54,17.15,11.37c4.7,4.83,8.28,10.33,10.73,16.51
					c2.44,6.17,3.67,12.69,3.67,19.53V406c0,6.6-1.19,12.96-3.58,19.07c-2.38,6.12-5.9,11.59-10.55,16.42
					c-4.65,4.83-10.33,8.65-17.06,11.46C1312.12,455.76,1304.41,457.17,1295.73,457.17z M1295.73,435.34
					c6.24,0,11.49-1.38,15.77-4.13c4.28-2.75,7.52-6.48,9.72-11.19c2.2-4.7,3.3-10.06,3.3-16.05c0-6.11-1.13-11.52-3.4-16.23
					c-2.26-4.7-5.56-8.44-9.9-11.19c-4.34-2.75-9.51-4.12-15.5-4.12c-5.99,0-11.16,1.37-15.5,4.12c-4.34,2.75-7.68,6.49-10,11.19
					c-2.33,4.71-3.49,10.12-3.49,16.23c0,5.99,1.13,11.34,3.4,16.05c2.26,4.71,5.53,8.44,9.81,11.19
					C1284.24,433.97,1289.5,435.34,1295.73,435.34z"/>
				<path class="st0" d="M1374.41,454.6V318.87h25.5V454.6H1374.41z M1396.23,392.05V376.1h28.61c6.24,0,10.82-1.65,13.76-4.95
					c2.94-3.3,4.4-7.7,4.4-13.2c0-5.5-1.47-9.9-4.4-13.21c-2.93-3.3-7.52-4.95-13.76-4.95h-28.61v-20.91h26.23
					c15.16,0,26.69,3.18,34.58,9.54c7.88,6.36,11.83,15.47,11.83,27.33v2.57c0,8.32-1.99,14.95-5.96,19.9
					c-3.98,4.95-9.45,8.5-16.42,10.64c-6.97,2.14-14.98,3.21-24.03,3.21H1396.23z M1396.23,454.6v-20.91h33.57
					c6.11,0,10.76-1.68,13.94-5.05c3.18-3.36,4.77-7.98,4.77-13.85s-1.59-10.42-4.77-13.66c-3.18-3.24-7.83-4.86-13.94-4.86h-33.57
					v-15.96h31.73c8.92,0,16.9,1.07,23.93,3.21c7.03,2.14,12.53,5.72,16.51,10.73c3.97,5.01,5.96,11.74,5.96,20.17V417
					c0,7.95-1.74,14.7-5.23,20.26c-3.49,5.56-8.68,9.84-15.59,12.84s-15.44,4.49-25.59,4.49H1396.23z"/>
				<path class="st0" d="M1498.58,453.68v-99.59h20.17v42.18h-0.55c0-14.31,3.06-25.13,9.17-32.46c6.11-7.34,15.1-11,26.96-11h3.67
					V375h-6.97c-8.56,0-15.19,2.29-19.9,6.88c-4.71,4.58-7.07,11.22-7.07,19.9v51.9H1498.58z"/>
				<path class="st0" d="M1602.76,456.25c-7.21,0-13.54-1.29-18.98-3.85c-5.44-2.57-9.66-6.24-12.66-11
					c-3-4.77-4.49-10.51-4.49-17.24c0-7.34,1.8-13.33,5.41-17.98c3.61-4.64,8.68-8.13,15.22-10.45c6.54-2.32,14.22-3.49,23.02-3.49
					h23.11v15.22h-23.48c-5.87,0-10.36,1.44-13.48,4.31c-3.12,2.87-4.68,6.58-4.68,11.1c0,4.52,1.56,8.19,4.68,11
					c3.12,2.81,7.61,4.22,13.48,4.22c3.54,0,6.81-0.64,9.81-1.93c2.99-1.28,5.5-3.49,7.52-6.6c2.01-3.12,3.14-7.37,3.39-12.75
					l6.24,7.15c-0.62,6.97-2.29,12.84-5.05,17.61c-2.75,4.77-6.54,8.41-11.37,10.91C1615.62,454.99,1609.73,456.25,1602.76,456.25z
					 M1634.85,453.68v-29.53h-4.22v-32.83c0-5.75-1.41-10.02-4.22-12.84c-2.82-2.81-7.15-4.22-13.02-4.22
					c-3.06,0-6.73,0.06-11.01,0.18c-4.28,0.13-8.59,0.27-12.93,0.46c-4.34,0.18-8.23,0.4-11.65,0.64v-21.64
					c2.81-0.25,5.99-0.49,9.54-0.74c3.54-0.24,7.18-0.4,10.91-0.46c3.73-0.06,7.25-0.09,10.55-0.09c10.27,0,18.8,1.35,25.59,4.03
					c6.79,2.69,11.92,6.91,15.41,12.66c3.49,5.75,5.23,13.27,5.23,22.56v61.81H1634.85z"/>
				<path class="st0" d="M1682.35,453.68v-99.59h20.17v42.74h-1.83c0-10.15,1.34-18.62,4.03-25.41c2.69-6.79,6.7-11.89,12.01-15.31
					c5.32-3.42,11.95-5.14,19.9-5.14h1.1c11.86,0,20.85,3.82,26.96,11.46c6.11,7.64,9.17,19.05,9.17,34.21v57.04h-25.5v-59.24
					c0-6.11-1.74-11.06-5.23-14.85c-3.49-3.79-8.28-5.68-14.4-5.68c-6.24,0-11.28,1.92-15.13,5.77c-3.85,3.85-5.78,9.02-5.78,15.5
					v58.51H1682.35z"/>
				<path class="st0" d="M1842.47,456.98c-6.97,0-13.39-1.28-19.26-3.85c-5.87-2.57-10.95-6.17-15.22-10.82
					c-4.28-4.65-7.58-10.06-9.91-16.24c-2.32-6.17-3.48-12.87-3.48-20.08v-3.85c0-7.09,1.13-13.75,3.39-19.99
					c2.26-6.24,5.44-11.68,9.54-16.33c4.09-4.65,9.04-8.28,14.85-10.91c5.81-2.63,12.26-3.94,19.35-3.94
					c7.82,0,14.7,1.68,20.63,5.05c5.93,3.36,10.66,8.41,14.21,15.13c3.54,6.73,5.5,15.16,5.87,25.31l-7.52-8.81v-67.86h25.5v133.89
					h-20.17v-42.37h4.4c-0.37,10.15-2.45,18.62-6.24,25.41c-3.79,6.79-8.77,11.86-14.95,15.22
					C1857.29,455.3,1850.29,456.98,1842.47,456.98z M1848.16,435.53c5.01,0,9.6-1.13,13.76-3.4c4.16-2.26,7.49-5.56,9.99-9.9
					s3.76-9.44,3.76-15.31v-7.34c0-5.87-1.28-10.79-3.85-14.76c-2.57-3.97-5.93-7.03-10.09-9.17c-4.16-2.14-8.68-3.21-13.57-3.21
					c-5.5,0-10.36,1.31-14.58,3.94c-4.22,2.63-7.52,6.33-9.9,11.1c-2.39,4.77-3.58,10.33-3.58,16.69c0,6.36,1.22,11.89,3.67,16.6
					s5.78,8.34,10,10.91S1842.77,435.53,1848.16,435.53z"/>
			</g>
		</g>
	</g>
</g>
</svg>
